<?xml version="1.0" encoding="UTF-8"?>
<svg version="1.1" xmlns="http://www.w3.org/2000/svg"   xmlns:xlink="http://www.w3.org/1999/xlink" x="0px" y="0px" width="316.925" height="84.103" viewBox="0, 0, 316.925, 84.103">
    
    <g id="argonavis">
        <g id="argo" fill="#cccccc">
            <path d="M129.304,18.989 C125.836,18.989 122.824,21.019 120.27,25.079 C117.715,29.156 116.43,34.028 116.43,39.712 C116.43,43.603 117.191,46.682 118.73,48.932 C120.27,51.182 122.334,52.299 124.956,52.299 C128.712,52.299 131.825,50.353 134.261,46.445 C136.713,42.555 137.932,37.496 137.932,31.287 C137.932,27.379 137.187,24.351 135.682,22.203 C134.176,20.055 132.045,18.989 129.304,18.989 z M107.108,39.019 C107.108,31.372 109.257,24.91 113.571,19.631 C117.884,14.336 123.028,11.697 129.016,11.697 C134.633,11.697 139.065,13.524 142.313,17.179 C145.578,20.832 147.202,25.84 147.202,32.218 C147.202,40.05 145.054,46.547 140.757,51.673 C136.46,56.816 131.063,59.387 124.55,59.387 C119.136,59.387 114.873,57.577 111.76,53.957 C108.665,50.336 107.108,45.363 107.108,39.019"/>
            <path d="M93.403,51.043 C91.61,53.293 89.732,54.951 87.753,56.034 C85.773,57.1 83.625,57.641 81.307,57.641 C76.874,57.641 73.187,55.899 70.226,52.431 C67.266,48.963 65.794,44.581 65.794,39.303 C65.794,36.19 66.301,33.162 67.3,30.184 C68.315,27.207 69.752,24.466 71.647,21.946 C74.608,18.054 78.076,15.246 82.001,13.521 C85.925,11.812 91.018,10.949 97.26,10.949 L107.918,10.949 L99.498,67.161 C98.744,72.019 95.34,77.327 89.72,80.419 C86.341,82.278 80.383,83.694 76.333,82.856 C75.674,82.719 74.996,82.535 74.269,82.264 L76.553,74.025 C77.01,74.127 77.433,74.211 77.839,74.262 C78.228,74.313 78.651,74.33 79.074,74.33 C81.611,74.33 84.832,73.844 86.874,71.945 C88.925,70.038 90.426,69.308 91.863,62.437 L93.403,51.043 z M94.689,42.619 L98.157,18.477 C97.886,18.443 97.598,18.41 97.26,18.393 C96.939,18.376 96.448,18.376 95.822,18.376 C89.749,18.376 84.792,20.237 80.969,23.975 C77.128,27.715 75.217,32.502 75.217,38.355 C75.217,41.959 76.029,44.852 77.67,47.051 C79.311,49.251 81.425,50.35 84.03,50.35 C86.044,50.35 87.956,49.707 89.732,48.421 C91.525,47.135 93.166,45.19 94.689,42.619"/>
            <path d="M29.895,43.102 L33.363,18.961 C33.093,18.927 32.805,18.893 32.467,18.876 C32.145,18.859 31.655,18.859 31.029,18.859 C24.956,18.859 19.999,20.72 16.175,24.459 C12.335,28.198 10.423,32.985 10.423,38.839 C10.423,42.442 11.236,45.335 12.877,47.534 C14.518,49.734 16.632,50.833 19.237,50.833 C21.251,50.833 23.162,50.19 24.939,48.904 C26.732,47.619 28.373,45.673 29.895,43.102 z M36.391,57.228 L27.764,57.228 L28.609,51.526 C26.817,53.777 24.939,55.435 22.959,56.517 C20.98,57.583 18.831,58.124 16.513,58.124 C12.081,58.124 8.393,56.382 5.433,52.914 C2.472,49.446 1,45.064 1,39.786 C1,36.673 1.508,33.645 2.506,30.667 C3.521,27.69 4.959,24.95 6.854,22.429 C9.814,18.538 13.283,15.729 17.207,14.004 C21.132,12.295 26.224,11.433 32.467,11.433 L43.125,11.433 L36.391,57.228"/>
            <path d="M49.342,57.177 L40.816,57.177 L45.564,26.586 C46.319,21.728 49.722,16.419 55.342,13.328 C58.722,11.469 64.679,10.053 68.729,10.891 C69.388,11.028 70.066,11.212 70.793,11.483 L68.509,19.721 C68.052,19.62 67.63,19.535 67.224,19.484 C66.834,19.434 66.411,19.417 65.988,19.417 C63.451,19.417 60.231,19.903 58.189,21.802 C56.137,23.708 54.637,24.439 53.199,31.31 L49.342,57.177"/>
        </g>
        <g id="navis" fill="#aaaaaa">
            <path d="M282.818,54.337 L284.949,45.811 C288.028,48.281 290.651,50.057 292.816,51.14 C294.981,52.206 296.994,52.747 298.889,52.747 C300.666,52.747 302.137,52.307 303.288,51.411 C304.455,50.514 305.03,49.397 305.03,48.044 C305.03,45.929 302.324,42.969 296.893,39.162 C296.825,39.095 296.775,39.044 296.741,39.01 C292.461,36.016 289.72,33.596 288.553,31.787 C287.385,29.959 286.793,27.845 286.793,25.425 C286.793,21.704 288.13,18.675 290.786,16.392 C293.442,14.091 296.978,12.94 301.41,12.94 C304.083,12.94 306.637,13.329 309.057,14.125 C311.493,14.92 313.777,16.121 315.925,17.694 L315.181,26.914 C312.575,24.867 310.072,23.328 307.703,22.313 C305.318,21.281 303.084,20.773 301.004,20.773 C299.397,20.773 298.077,21.145 297.096,21.89 C296.098,22.634 295.607,23.599 295.607,24.782 C295.607,26.576 297.705,28.911 301.901,31.82 C303.829,33.14 305.352,34.222 306.468,35.052 C309.31,37.234 311.29,39.247 312.407,41.125 C313.539,42.985 314.098,45.134 314.098,47.536 C314.098,51.376 312.694,54.523 309.902,56.959 C307.111,59.413 303.542,60.63 299.177,60.63 C296.403,60.63 293.695,60.123 291.073,59.125 C288.451,58.11 285.694,56.52 282.818,54.337"/>
            <path d="M278.667,59.734 L269.836,59.734 L276.536,13.939 L285.35,13.939 L278.667,59.734 z M276.918,5.855 C276.918,4.485 277.392,3.334 278.323,2.404 C279.27,1.473 280.421,1 281.774,1 C283.093,1 284.21,1.473 285.14,2.421 C286.071,3.385 286.528,4.518 286.528,5.855 C286.528,7.191 286.071,8.325 285.14,9.256 C284.21,10.186 283.093,10.659 281.774,10.659 C280.387,10.659 279.236,10.203 278.306,9.289 C277.375,8.359 276.918,7.225 276.918,5.855"/>
            <path d="M221.199,45.608 L224.667,21.466 C224.397,21.433 224.109,21.399 223.771,21.382 C223.449,21.366 222.959,21.366 222.333,21.366 C216.26,21.366 211.303,23.226 207.48,26.965 C203.639,30.704 201.727,35.491 201.727,41.344 C201.727,44.948 202.54,47.841 204.181,50.041 C205.822,52.24 207.936,53.339 210.541,53.339 C212.555,53.339 214.466,52.696 216.243,51.411 C218.036,50.125 219.677,48.179 221.199,45.608 z M227.695,59.734 L219.068,59.734 L219.913,54.033 C218.121,56.283 216.243,57.94 214.263,59.023 C212.284,60.089 210.135,60.63 207.817,60.63 C203.385,60.63 199.697,58.888 196.737,55.42 C193.776,51.952 192.304,47.57 192.304,42.292 C192.304,39.179 192.812,36.151 193.81,33.174 C194.825,30.196 196.263,27.456 198.158,24.935 C201.118,21.044 204.587,18.236 208.511,16.51 C212.436,14.801 217.528,13.939 223.771,13.939 L234.429,13.939 L227.695,59.734"/>
            <path d="M148.731,58.322 L155.674,12.578 L165.372,12.614 L173.46,12.63 L176.756,12.622 C179.016,12.627 181.067,12.907 182.888,13.837 C185.4,15.121 186.266,15.923 188.627,18.973 C191.058,22.112 190.546,24.793 190.018,29.234 L185.765,58.322 L176.934,58.322 L181.326,27.06 C181.544,25.513 180.735,23.601 179.933,22.181 C178.363,21.063 177.863,19.992 172.223,20.383 L162.895,20.751 L157.466,58.372 L148.731,58.322"/>
            <path d="M272.405,14.169 L268.6,40.243 C266.389,48.792 263.722,52.172 255.039,54.726 C247.275,57.009 241.766,57.959 231.728,59.934 L238.501,13.899 L247.332,13.899 L242.245,50.2 L251.77,47.81 C254.803,47.049 258.74,45.123 260.592,38.401 L264.367,14.141 L272.405,14.169"/>
        </g>
    </g>
</svg>
